<mxfile host="app.diagrams.net" modified="2021-05-13T08:35:56.275Z" agent="5.0 (Windows NT 10.0; Win64; x64) AppleWebKit/537.36 (KHTML, like Gecko) Chrome/90.0.4430.93 Safari/537.36 Edg/90.0.818.51" etag="00SXW9osP5PrbdSzqgH2" version="14.6.12" type="github">
  <diagram id="2OXvbYQwceJTbxDe8qUV" name="Page-1">
    <mxGraphModel dx="1422" dy="762" grid="1" gridSize="10" guides="1" tooltips="1" connect="1" arrows="1" fold="1" page="1" pageScale="1" pageWidth="827" pageHeight="1169" math="0" shadow="0">
      <root>
        <mxCell id="0" />
        <mxCell id="1" parent="0" />
        <mxCell id="D9POTnDpEfnNpZZSnDYv-7" style="edgeStyle=orthogonalEdgeStyle;rounded=0;orthogonalLoop=1;jettySize=auto;html=1;entryX=0.5;entryY=0;entryDx=0;entryDy=0;" edge="1" parent="1" source="D9POTnDpEfnNpZZSnDYv-1" target="D9POTnDpEfnNpZZSnDYv-3">
          <mxGeometry relative="1" as="geometry" />
        </mxCell>
        <mxCell id="D9POTnDpEfnNpZZSnDYv-10" style="edgeStyle=orthogonalEdgeStyle;rounded=0;orthogonalLoop=1;jettySize=auto;html=1;entryX=0.5;entryY=0;entryDx=0;entryDy=0;" edge="1" parent="1" source="D9POTnDpEfnNpZZSnDYv-1" target="D9POTnDpEfnNpZZSnDYv-4">
          <mxGeometry relative="1" as="geometry" />
        </mxCell>
        <mxCell id="D9POTnDpEfnNpZZSnDYv-1" value="市级企业" style="rounded=0;whiteSpace=wrap;html=1;" vertex="1" parent="1">
          <mxGeometry x="290" y="30" width="140" height="30" as="geometry" />
        </mxCell>
        <mxCell id="D9POTnDpEfnNpZZSnDYv-8" style="edgeStyle=orthogonalEdgeStyle;rounded=0;orthogonalLoop=1;jettySize=auto;html=1;entryX=0.5;entryY=0;entryDx=0;entryDy=0;" edge="1" parent="1" source="D9POTnDpEfnNpZZSnDYv-3" target="D9POTnDpEfnNpZZSnDYv-5">
          <mxGeometry relative="1" as="geometry" />
        </mxCell>
        <mxCell id="D9POTnDpEfnNpZZSnDYv-9" style="edgeStyle=orthogonalEdgeStyle;rounded=0;orthogonalLoop=1;jettySize=auto;html=1;entryX=0.5;entryY=0;entryDx=0;entryDy=0;" edge="1" parent="1" source="D9POTnDpEfnNpZZSnDYv-3" target="D9POTnDpEfnNpZZSnDYv-6">
          <mxGeometry relative="1" as="geometry" />
        </mxCell>
        <mxCell id="D9POTnDpEfnNpZZSnDYv-3" value="市级运行处" style="rounded=1;whiteSpace=wrap;html=1;" vertex="1" parent="1">
          <mxGeometry x="220" y="100" width="110" height="40" as="geometry" />
        </mxCell>
        <mxCell id="D9POTnDpEfnNpZZSnDYv-4" value="市级投资处" style="rounded=1;whiteSpace=wrap;html=1;" vertex="1" parent="1">
          <mxGeometry x="380" y="100" width="110" height="40" as="geometry" />
        </mxCell>
        <mxCell id="D9POTnDpEfnNpZZSnDYv-5" value="县级运行处" style="rounded=1;whiteSpace=wrap;html=1;" vertex="1" parent="1">
          <mxGeometry x="150" y="230" width="110" height="40" as="geometry" />
        </mxCell>
        <mxCell id="D9POTnDpEfnNpZZSnDYv-6" value="园区运行处" style="rounded=1;whiteSpace=wrap;html=1;" vertex="1" parent="1">
          <mxGeometry x="280" y="230" width="110" height="40" as="geometry" />
        </mxCell>
      </root>
    </mxGraphModel>
  </diagram>
</mxfile>
